<svg xmlns="http://www.w3.org/2000/svg" viewBox="0 0 162.69 166.88"><defs><style>.cls-1{fill:#fff;}</style></defs><g id="Layer_2" data-name="Layer 2"><g id="Layer_2-2" data-name="Layer 2"><rect class="cls-1" width="162.69" height="166.88" rx="64.9"/><path d="M78.69,43.22h22.36a.8.8,0,0,1,.69.41l21.62,38a3.18,3.18,0,0,1,0,3.09l-20.64,38.49a.8.8,0,0,1-.7.42H78.68a.8.8,0,0,1-.69-1.21L100.92,84.8a3.19,3.19,0,0,0,0-3.34L78,44.44A.8.8,0,0,1,78.69,43.22Z"/><path d="M57.67,71.67,41.07,46.5a2.12,2.12,0,0,1,1.76-3.28H62a2.1,2.1,0,0,1,1.83,1.07L81,74.57a.85.85,0,0,1-.74,1.28H65.43A9.3,9.3,0,0,1,57.67,71.67Z"/><path d="M82,90.39,64.79,122.54a2.1,2.1,0,0,1-1.86,1.11H42.8A2.11,2.11,0,0,1,41,120.4l17.54-27a9.33,9.33,0,0,1,7.81-4.24H81.27A.87.87,0,0,1,82,90.39Z"/></g></g></svg>