<svg xmlns="http://www.w3.org/2000/svg" viewBox="0 0 380.23 92.36"><g id="Layer_2" data-name="Layer 2"><g id="Layer_2-2" data-name="Layer 2"><path d="M1.75,4.19h32a1.56,1.56,0,0,1,1.55,1.55v6.33a1.55,1.55,0,0,1-1.55,1.55H25.39a1.54,1.54,0,0,0-1.55,1.55v40.2a1.54,1.54,0,0,1-1.55,1.55H13.22a1.54,1.54,0,0,1-1.55-1.55V15.17a1.54,1.54,0,0,0-1.55-1.55H1.75A1.55,1.55,0,0,1,.2,12.07V5.74A1.56,1.56,0,0,1,1.75,4.19Z"/><path d="M47.08,40.37a1.54,1.54,0,0,0-1.53,1.82,9.68,9.68,0,0,0,2.58,5.18,9.29,9.29,0,0,0,6.73,2.32A18.13,18.13,0,0,0,60,48.94a20.45,20.45,0,0,0,3.11-1.17,1.56,1.56,0,0,1,2.23,1.33L65.54,54a1.53,1.53,0,0,1-1,1.49,30.91,30.91,0,0,1-5.09,1.57,29.07,29.07,0,0,1-6.23.69q-9.29,0-14.4-5.33t-5.12-15q0-9.31,4.65-15a15,15,0,0,1,12.19-5.71q8.05,0,12.51,5.49t4.45,15.54c0,.7,0,1.22,0,1.56s0,.68,0,1ZM56.83,34c0-.4,0-.78,0-1.17s0-.59,0-.61a9.44,9.44,0,0,0-1.45-5.64,4.72,4.72,0,0,0-4.08-2,5.07,5.07,0,0,0-4.49,2.27,12.53,12.53,0,0,0-1.66,5.43A1.55,1.55,0,0,0,46.76,34Z"/><path d="M101.16,19.79l-.39,5.49a1.54,1.54,0,0,1-2.08,1.34,13.13,13.13,0,0,0-1.38-.46,12.2,12.2,0,0,0-3.3-.48q-4.42,0-6.7,2.74T85,36.48q0,6,2.19,9.2a7.14,7.14,0,0,0,6.27,3.19,15.75,15.75,0,0,0,4-.52,17.91,17.91,0,0,0,1.88-.61,1.53,1.53,0,0,1,2.07,1.34l.36,5.43a1.55,1.55,0,0,1-1,1.58,35.25,35.25,0,0,1-4.54,1.17,31.07,31.07,0,0,1-5.58.52q-8.2,0-13-5.61T72.9,36.92q0-9.42,5-14.8t13.6-5.38a25.72,25.72,0,0,1,4.89.46,26.73,26.73,0,0,1,3.77,1A1.53,1.53,0,0,1,101.16,19.79Z"/><path d="M124.16,8.11V16a1.54,1.54,0,0,0,1.54,1.55h4.44a1.54,1.54,0,0,1,1.55,1.55v5a1.55,1.55,0,0,1-1.55,1.55H125.7a1.54,1.54,0,0,0-1.54,1.55V42.12q0,4.34,1,5.69c.64.91,1.79,1.36,3.45,1.36a9.47,9.47,0,0,0,1.56-.15l.33-.06a1.55,1.55,0,0,1,1.82,1.52v5.08A1.54,1.54,0,0,1,131,57.08c-.92.16-1.81.29-2.66.38a31,31,0,0,1-3.49.2q-6.72,0-9.44-3t-2.73-11.9V27.23a1.54,1.54,0,0,0-1.55-1.55h-3.36a1.56,1.56,0,0,1-1.55-1.55v-5a1.55,1.55,0,0,1,1.55-1.55h3.36A1.54,1.54,0,0,0,112.69,16V10.71a1.54,1.54,0,0,1,1.09-1.47l8.37-2.6A1.55,1.55,0,0,1,124.16,8.11Z"/><path d="M149.29,40.37a1.54,1.54,0,0,0-1.53,1.82,9.68,9.68,0,0,0,2.58,5.18,9.29,9.29,0,0,0,6.73,2.32,18.13,18.13,0,0,0,5.12-.75,20.45,20.45,0,0,0,3.11-1.17,1.56,1.56,0,0,1,2.23,1.33l.22,4.92a1.54,1.54,0,0,1-.95,1.5,30.91,30.91,0,0,1-5.09,1.57,29.1,29.1,0,0,1-6.24.69q-9.27,0-14.39-5.33t-5.12-15q0-9.31,4.65-15a15,15,0,0,1,12.19-5.71q8.05,0,12.51,5.49t4.45,15.54c0,.7,0,1.22,0,1.56s0,.68-.05,1ZM159,34c0-.4,0-.78,0-1.17s0-.59,0-.61a9.44,9.44,0,0,0-1.45-5.64,4.72,4.72,0,0,0-4.08-2,5.07,5.07,0,0,0-4.49,2.27,12.53,12.53,0,0,0-1.66,5.43A1.55,1.55,0,0,0,149,34Z"/><path d="M199.63,16.88V27.42a2.39,2.39,0,0,1-.44-.07,12.63,12.63,0,0,0-2.3-.37q-4.3,0-6.29,2.61t-2,8.41V55.37a1.54,1.54,0,0,1-1.55,1.55h-8.44a1.54,1.54,0,0,1-1.55-1.55V26.09c0-2.28,0-4-.09-5.2,0-.57-.07-1.13-.11-1.67a1.54,1.54,0,0,1,1.54-1.67h8.83a2.22,2.22,0,0,1,0,.41c.2,2.37.3,4.12.3,5.23v1.19a11.77,11.77,0,0,1,4-5.59,9.91,9.91,0,0,1,6.08-2.05,17.81,17.81,0,0,1,1.79.11Z"/><path d="M234.77,21a1.51,1.51,0,0,0,2.46,0,10.13,10.13,0,0,1,3-2.69A13.08,13.08,0,0,1,247,16.74c3.46,0,6.12,1.13,8,3.41s2.76,5.56,2.76,9.87V55.37a1.54,1.54,0,0,1-1.54,1.55h-8.49a1.54,1.54,0,0,1-1.54-1.55V32.62a8.64,8.64,0,0,0-1-4.72A3.53,3.53,0,0,0,242,26.38a4.32,4.32,0,0,0-3.88,2.06,11.37,11.37,0,0,0-1.32,6.07V55.37a1.54,1.54,0,0,1-1.54,1.55h-8.37a1.54,1.54,0,0,1-1.55-1.55V32.62a8.67,8.67,0,0,0-1-4.73,3.54,3.54,0,0,0-3.19-1.51,4.27,4.27,0,0,0-3.84,2.06A11.37,11.37,0,0,0,216,34.51V55.37a1.54,1.54,0,0,1-1.55,1.55H206a1.54,1.54,0,0,1-1.55-1.55V26.09c0-2.28,0-4-.09-5.2,0-.57-.07-1.13-.12-1.67a1.55,1.55,0,0,1,1.54-1.67h7.45A1.57,1.57,0,0,1,214.75,19c.06.65.11,1.26.15,1.84q.09,1.47.09,2.76a10.83,10.83,0,0,1,4.2-5,11.5,11.5,0,0,1,6.34-1.83A12,12,0,0,1,232,18.39,9.62,9.62,0,0,1,234.77,21Z"/><path d="M271.66.59h1.44a5,5,0,0,1,5,5v.25a5,5,0,0,1-5,5h-1.44a5,5,0,0,1-5-5V5.61A5,5,0,0,1,271.66.59Zm-3.47,17h8.37a1.54,1.54,0,0,1,1.55,1.55V55.37a1.54,1.54,0,0,1-1.55,1.55h-8.37a1.54,1.54,0,0,1-1.54-1.55V19.1A1.54,1.54,0,0,1,268.19,17.55Z"/><path d="M320.15,30V55.37a1.54,1.54,0,0,1-1.54,1.55h-8.49a1.54,1.54,0,0,1-1.54-1.55V32.62a8.35,8.35,0,0,0-1.06-4.73,3.77,3.77,0,0,0-3.32-1.51,4.42,4.42,0,0,0-3.92,2.08,11.16,11.16,0,0,0-1.35,6V55.37a1.54,1.54,0,0,1-1.55,1.55h-8.44a1.54,1.54,0,0,1-1.55-1.55V26.09c0-2.28,0-4-.09-5.2,0-.57-.07-1.13-.12-1.67a1.55,1.55,0,0,1,1.54-1.67h7.45A1.56,1.56,0,0,1,297.72,19c.06.65.11,1.26.15,1.84q.09,1.47.09,2.76a10.58,10.58,0,0,1,4.29-5A12.59,12.59,0,0,1,309,16.74q5.46,0,8.32,3.37T320.15,30Z"/><path d="M359.78,34.36V48.87c0,1.71,0,3.19.12,4.45,0,.65.08,1.28.15,1.9a1.55,1.55,0,0,1-1.54,1.7h-7.62a1.55,1.55,0,0,1-1.55-1.41v-.22a1.55,1.55,0,0,0-2.55-1,13.78,13.78,0,0,1-3,2,14,14,0,0,1-6.44,1.49,10.81,10.81,0,0,1-8.25-3.34A12.25,12.25,0,0,1,326,45.68q0-6.57,4.82-10.09t13.88-3.53h3.86V31a5.84,5.84,0,0,0-1.93-4.77,8.65,8.65,0,0,0-5.68-1.62,16,16,0,0,0-5.32.93,16.22,16.22,0,0,0-2.81,1.29,1.54,1.54,0,0,1-2.29-1.25l-.33-4.91a1.53,1.53,0,0,1,1-1.57,46.63,46.63,0,0,1,5.92-1.63,32.84,32.84,0,0,1,6.55-.68q9,0,12.54,3.74T359.78,34.36Zm-11.24,5.52a1.54,1.54,0,0,0-1.45-1.55h0c-.5,0-1.15,0-1.94,0-2.75,0-4.83.54-6.24,1.6a5.45,5.45,0,0,0-2.11,4.64,5.26,5.26,0,0,0,1.37,3.84,5.08,5.08,0,0,0,3.79,1.39,5.78,5.78,0,0,0,5-2.21q1.6-2.2,1.61-6.88Z"/><path d="M370.31,0h8.37a1.54,1.54,0,0,1,1.55,1.55V55.37a1.54,1.54,0,0,1-1.55,1.55h-8.37a1.55,1.55,0,0,1-1.55-1.55V1.55A1.55,1.55,0,0,1,370.31,0Z"/><path d="M11.84,86.57l2.08.52A7,7,0,0,1,11.56,91,6.47,6.47,0,0,1,7.4,92.36a7.47,7.47,0,0,1-4.14-1,6.52,6.52,0,0,1-2.43-3A10.8,10.8,0,0,1,0,84.1a9.23,9.23,0,0,1,.94-4.29A6.49,6.49,0,0,1,3.61,77a7.87,7.87,0,0,1,3.82-1,6.43,6.43,0,0,1,4,1.21,6.25,6.25,0,0,1,2.24,3.38l-2.05.48A4.81,4.81,0,0,0,10,78.64a4.25,4.25,0,0,0-2.62-.78,5.07,5.07,0,0,0-3,.87,4.54,4.54,0,0,0-1.72,2.33,9.43,9.43,0,0,0-.49,3,9.62,9.62,0,0,0,.58,3.5,4.36,4.36,0,0,0,1.82,2.24,5.08,5.08,0,0,0,2.68.74,4.43,4.43,0,0,0,3-1A5.17,5.17,0,0,0,11.84,86.57Z"/><path d="M15.52,86.38a5.89,5.89,0,0,1,1.76-4.69,5.36,5.36,0,0,1,3.59-1.27A5.16,5.16,0,0,1,24.72,82a5.89,5.89,0,0,1,1.49,4.26,7.57,7.57,0,0,1-.66,3.47,4.71,4.71,0,0,1-1.92,2,5.66,5.66,0,0,1-2.76.7A5.13,5.13,0,0,1,17,90.81,6.11,6.11,0,0,1,15.52,86.38Zm2,0a4.86,4.86,0,0,0,1,3.29,3.18,3.18,0,0,0,4.8,0,5,5,0,0,0,.95-3.34,4.73,4.73,0,0,0-1-3.21A3.08,3.08,0,0,0,20.87,82a3,3,0,0,0-2.4,1.09A4.8,4.8,0,0,0,17.51,86.38Z"/><path d="M28.48,92.09V80.68h1.74V82.3a4.11,4.11,0,0,1,3.63-1.88,4.83,4.83,0,0,1,1.89.37,3,3,0,0,1,1.3,1,3.57,3.57,0,0,1,.6,1.42,11.23,11.23,0,0,1,.11,1.88v7H35.81V85.15a5.25,5.25,0,0,0-.22-1.77,1.85,1.85,0,0,0-.8-.93,2.47,2.47,0,0,0-1.35-.35,3.15,3.15,0,0,0-2.13.78,3.88,3.88,0,0,0-.9,3v6.23Z"/><path d="M40.71,92.09V80.68h1.74V82.3a4.11,4.11,0,0,1,3.63-1.88,4.91,4.91,0,0,1,1.9.37,2.88,2.88,0,0,1,1.29,1,3.73,3.73,0,0,1,.61,1.42,11.54,11.54,0,0,1,.1,1.88v7H48.05V85.15a5.21,5.21,0,0,0-.23-1.77,1.81,1.81,0,0,0-.8-.93,2.46,2.46,0,0,0-1.34-.35,3.15,3.15,0,0,0-2.14.78,3.93,3.93,0,0,0-.89,3v6.23Z"/><path d="M60.76,88.42l2,.24A4.85,4.85,0,0,1,61,91.38a5.92,5.92,0,0,1-7.23-.57,6,6,0,0,1-1.47-4.33A6.3,6.3,0,0,1,53.79,82a5,5,0,0,1,3.84-1.59A4.88,4.88,0,0,1,61.37,82a6.18,6.18,0,0,1,1.45,4.38c0,.12,0,.29,0,.52H54.3a4.38,4.38,0,0,0,1.07,2.88,3.17,3.17,0,0,0,2.38,1,3,3,0,0,0,1.82-.56A3.77,3.77,0,0,0,60.76,88.42Zm-6.35-3.13h6.37a3.91,3.91,0,0,0-.73-2.16A3,3,0,0,0,57.65,82a3.11,3.11,0,0,0-2.24.89A3.54,3.54,0,0,0,54.41,85.29Z"/><path d="M72.63,87.91l1.9.25a5,5,0,0,1-1.6,3.08,4.63,4.63,0,0,1-3.15,1.11A4.88,4.88,0,0,1,66,90.82a6.22,6.22,0,0,1-1.43-4.39,8,8,0,0,1,.62-3.24,4.19,4.19,0,0,1,1.86-2.07,5.43,5.43,0,0,1,2.72-.7,4.77,4.77,0,0,1,3,.94A4.36,4.36,0,0,1,74.35,84l-1.88.29a3.19,3.19,0,0,0-1-1.73A2.52,2.52,0,0,0,69.87,82a3,3,0,0,0-2.38,1,5,5,0,0,0-.91,3.31,5.1,5.1,0,0,0,.88,3.34,2.86,2.86,0,0,0,2.3,1.05,2.73,2.73,0,0,0,1.9-.7A3.49,3.49,0,0,0,72.63,87.91Z"/><path d="M80.41,90.36l.27,1.71a7.45,7.45,0,0,1-1.46.17,3.33,3.33,0,0,1-1.63-.33,1.92,1.92,0,0,1-.82-.88,7.18,7.18,0,0,1-.23-2.28V82.18H75.12v-1.5h1.42V77.86l1.92-1.16v4h2v1.5h-2v6.68a3.32,3.32,0,0,0,.1,1.06.76.76,0,0,0,.34.37,1.2,1.2,0,0,0,.66.14A6.35,6.35,0,0,0,80.41,90.36Z"/><path d="M82.84,92.09v-2.2h2.21v2.2Z"/><path d="M91.82,92.09l6.05-15.75h2.25l6.44,15.75h-2.37l-1.84-4.77H95.77L94,92.09Zm4.55-6.47h5.34l-1.65-4.36c-.5-1.32-.87-2.41-1.11-3.26a20.71,20.71,0,0,1-.85,3Z"/><path d="M115.43,87.91l1.9.25a5,5,0,0,1-1.6,3.08,4.65,4.65,0,0,1-3.15,1.11,4.91,4.91,0,0,1-3.77-1.53,6.22,6.22,0,0,1-1.42-4.39,8,8,0,0,1,.61-3.24,4.25,4.25,0,0,1,1.87-2.07,5.43,5.43,0,0,1,2.72-.7,4.77,4.77,0,0,1,3,.94A4.3,4.3,0,0,1,117.14,84l-1.88.29a3.07,3.07,0,0,0-1-1.73,2.48,2.48,0,0,0-1.65-.58,3,3,0,0,0-2.37,1,5,5,0,0,0-.91,3.31,5.1,5.1,0,0,0,.88,3.34,2.86,2.86,0,0,0,2.3,1.05,2.73,2.73,0,0,0,1.9-.7A3.49,3.49,0,0,0,115.43,87.91Z"/><path d="M126.43,87.91l1.9.25a5,5,0,0,1-1.6,3.08,4.65,4.65,0,0,1-3.15,1.11,4.91,4.91,0,0,1-3.77-1.53,6.22,6.22,0,0,1-1.42-4.39,8,8,0,0,1,.61-3.24,4.25,4.25,0,0,1,1.87-2.07,5.43,5.43,0,0,1,2.72-.7,4.77,4.77,0,0,1,3,.94A4.3,4.3,0,0,1,128.14,84l-1.88.29a3.07,3.07,0,0,0-1-1.73,2.48,2.48,0,0,0-1.65-.58,3,3,0,0,0-2.37,1,5,5,0,0,0-.91,3.31,5.1,5.1,0,0,0,.88,3.34,2.86,2.86,0,0,0,2.3,1.05,2.73,2.73,0,0,0,1.9-.7A3.49,3.49,0,0,0,126.43,87.91Z"/><path d="M137.79,88.42l2,.24A4.89,4.89,0,0,1,138,91.38a5.93,5.93,0,0,1-7.24-.57,6.07,6.07,0,0,1-1.46-4.33A6.3,6.3,0,0,1,130.82,82a5,5,0,0,1,3.84-1.59A4.86,4.86,0,0,1,138.4,82a6.18,6.18,0,0,1,1.45,4.38c0,.12,0,.29,0,.52h-8.51a4.44,4.44,0,0,0,1.07,2.88,3.19,3.19,0,0,0,2.38,1,3,3,0,0,0,1.82-.56A3.7,3.7,0,0,0,137.79,88.42Zm-6.35-3.13h6.37a3.83,3.83,0,0,0-.73-2.16A2.93,2.93,0,0,0,134.69,82a3.08,3.08,0,0,0-2.24.89A3.55,3.55,0,0,0,131.44,85.29Z"/><path d="M141.44,88.68l1.91-.3a2.66,2.66,0,0,0,.9,1.76,3.13,3.13,0,0,0,2.06.62,3,3,0,0,0,2-.55,1.62,1.62,0,0,0,.65-1.27,1.17,1.17,0,0,0-.57-1,8.48,8.48,0,0,0-2-.66,17.43,17.43,0,0,1-2.94-.92,2.84,2.84,0,0,1-1.68-2.62,3,3,0,0,1,.35-1.41,3.1,3.1,0,0,1,.95-1.08,4.16,4.16,0,0,1,1.23-.57,6,6,0,0,1,1.67-.23,6.52,6.52,0,0,1,2.36.39,3.21,3.21,0,0,1,1.5,1,4.24,4.24,0,0,1,.67,1.76l-1.89.26a2.08,2.08,0,0,0-.75-1.37,2.72,2.72,0,0,0-1.75-.5,3.2,3.2,0,0,0-1.9.44,1.29,1.29,0,0,0-.57,1,1,1,0,0,0,.24.68,1.71,1.71,0,0,0,.74.52c.19.07.76.23,1.71.49a22.94,22.94,0,0,1,2.86.9,2.73,2.73,0,0,1,1.74,2.67,3.23,3.23,0,0,1-.57,1.82,3.62,3.62,0,0,1-1.62,1.32,6,6,0,0,1-2.41.47,5.35,5.35,0,0,1-3.39-.93A4.3,4.3,0,0,1,141.44,88.68Z"/><path d="M152.44,88.68l1.91-.3a2.66,2.66,0,0,0,.9,1.76,3.13,3.13,0,0,0,2.06.62,3,3,0,0,0,2-.55,1.62,1.62,0,0,0,.65-1.27,1.17,1.17,0,0,0-.57-1,8.48,8.48,0,0,0-2-.66,17.43,17.43,0,0,1-2.94-.92,2.84,2.84,0,0,1-1.68-2.62,3,3,0,0,1,.35-1.41,3.1,3.1,0,0,1,.95-1.08,4.16,4.16,0,0,1,1.23-.57,6,6,0,0,1,1.67-.23,6.52,6.52,0,0,1,2.36.39,3.21,3.21,0,0,1,1.5,1,4.24,4.24,0,0,1,.67,1.76l-1.89.26a2.08,2.08,0,0,0-.75-1.37,2.72,2.72,0,0,0-1.75-.5,3.2,3.2,0,0,0-1.9.44,1.29,1.29,0,0,0-.57,1,1,1,0,0,0,.24.68,1.71,1.71,0,0,0,.74.52c.19.07.76.23,1.71.49a22.94,22.94,0,0,1,2.86.9,2.73,2.73,0,0,1,1.74,2.67,3.23,3.23,0,0,1-.57,1.82,3.62,3.62,0,0,1-1.62,1.32,6,6,0,0,1-2.41.47,5.35,5.35,0,0,1-3.39-.93A4.3,4.3,0,0,1,152.44,88.68Z"/><path d="M164.76,92.09v-2.2H167v2.2Z"/><path d="M176,87l2-.17a4.45,4.45,0,0,0,.65,1.94A3.56,3.56,0,0,0,180.18,90a6,6,0,0,0,2.42.47,5.71,5.71,0,0,0,2.1-.36,2.9,2.9,0,0,0,1.36-1,2.24,2.24,0,0,0,.45-1.35,2.09,2.09,0,0,0-.43-1.29,3.19,3.19,0,0,0-1.42-.93,27.43,27.43,0,0,0-2.81-.77,14.53,14.53,0,0,1-3-1,4.21,4.21,0,0,1-1.68-1.47,3.56,3.56,0,0,1-.55-2,4,4,0,0,1,.68-2.23,4.21,4.21,0,0,1,2-1.57,7.48,7.48,0,0,1,2.89-.54,7.81,7.81,0,0,1,3.09.57,4.44,4.44,0,0,1,2.06,1.66,4.69,4.69,0,0,1,.77,2.48l-2,.15A3.2,3.2,0,0,0,185,78.67a4.22,4.22,0,0,0-2.74-.76,4.44,4.44,0,0,0-2.76.69,2.09,2.09,0,0,0-.86,1.67,1.79,1.79,0,0,0,.61,1.4,8.35,8.35,0,0,0,3.14,1.12,19.91,19.91,0,0,1,3.49,1,4.73,4.73,0,0,1,2,1.6,3.9,3.9,0,0,1,.65,2.24,4.28,4.28,0,0,1-.72,2.37,4.71,4.71,0,0,1-2.06,1.73,7.24,7.24,0,0,1-3,.62,9,9,0,0,1-3.58-.63,5,5,0,0,1-2.27-1.87A5.3,5.3,0,0,1,176,87Z"/><path d="M198.59,92.09V90.41A4.18,4.18,0,0,1,195,92.35a4.55,4.55,0,0,1-1.88-.39,3.17,3.17,0,0,1-1.31-1,3.61,3.61,0,0,1-.59-1.44,9.64,9.64,0,0,1-.12-1.8V80.68H193V87a11.08,11.08,0,0,0,.12,2,2,2,0,0,0,.78,1.2,2.38,2.38,0,0,0,1.46.43,3.24,3.24,0,0,0,1.63-.44A2.5,2.5,0,0,0,198.07,89a6.08,6.08,0,0,0,.32-2.23V80.68h1.93V92.09Z"/><path d="M210.79,87.91l1.91.25a5,5,0,0,1-1.6,3.08A4.66,4.66,0,0,1,208,92.35a4.91,4.91,0,0,1-3.77-1.53,6.22,6.22,0,0,1-1.42-4.39,8,8,0,0,1,.61-3.24,4.25,4.25,0,0,1,1.87-2.07,5.43,5.43,0,0,1,2.72-.7,4.77,4.77,0,0,1,3,.94A4.3,4.3,0,0,1,212.51,84l-1.88.29a3.13,3.13,0,0,0-.95-1.73A2.48,2.48,0,0,0,208,82a3,3,0,0,0-2.37,1,5,5,0,0,0-.91,3.31,5.1,5.1,0,0,0,.88,3.34,2.84,2.84,0,0,0,2.3,1.05,2.73,2.73,0,0,0,1.9-.7A3.43,3.43,0,0,0,210.79,87.91Z"/><path d="M221.79,87.91l1.91.25a5,5,0,0,1-1.6,3.08A4.66,4.66,0,0,1,219,92.35a4.91,4.91,0,0,1-3.77-1.53,6.22,6.22,0,0,1-1.42-4.39,8,8,0,0,1,.61-3.24,4.25,4.25,0,0,1,1.87-2.07,5.43,5.43,0,0,1,2.72-.7,4.77,4.77,0,0,1,3,.94A4.3,4.3,0,0,1,223.51,84l-1.88.29a3.13,3.13,0,0,0-.95-1.73A2.48,2.48,0,0,0,219,82a3,3,0,0,0-2.37,1,5,5,0,0,0-.91,3.31,5.1,5.1,0,0,0,.88,3.34,2.84,2.84,0,0,0,2.3,1.05,2.73,2.73,0,0,0,1.9-.7A3.43,3.43,0,0,0,221.79,87.91Z"/><path d="M233.16,88.42l2,.24a4.89,4.89,0,0,1-1.75,2.72,5.31,5.31,0,0,1-3.27,1,5.25,5.25,0,0,1-4-1.54,6,6,0,0,1-1.46-4.33A6.3,6.3,0,0,1,226.19,82,5,5,0,0,1,230,80.42,4.86,4.86,0,0,1,233.77,82a6.18,6.18,0,0,1,1.45,4.38c0,.12,0,.29,0,.52H226.7a4.38,4.38,0,0,0,1.07,2.88,3.17,3.17,0,0,0,2.38,1A3,3,0,0,0,232,90.2,3.7,3.7,0,0,0,233.16,88.42Zm-6.35-3.13h6.37a3.83,3.83,0,0,0-.73-2.16A3,3,0,0,0,230.06,82a3.08,3.08,0,0,0-2.24.89A3.55,3.55,0,0,0,226.81,85.29Z"/><path d="M245.39,88.42l2,.24a4.84,4.84,0,0,1-1.75,2.72,5.92,5.92,0,0,1-7.23-.57,6,6,0,0,1-1.47-4.33A6.3,6.3,0,0,1,238.42,82a5,5,0,0,1,3.85-1.59A4.89,4.89,0,0,1,246,82a6.22,6.22,0,0,1,1.45,4.38c0,.12,0,.29,0,.52h-8.51A4.38,4.38,0,0,0,240,89.76a3.19,3.19,0,0,0,2.39,1,3,3,0,0,0,1.81-.56A3.7,3.7,0,0,0,245.39,88.42Zm-6.34-3.13h6.37a3.91,3.91,0,0,0-.73-2.16,3,3,0,0,0-2.4-1.12,3.08,3.08,0,0,0-2.24.89A3.5,3.5,0,0,0,239.05,85.29Z"/><path d="M257.22,92.09V90.65a3.54,3.54,0,0,1-3.19,1.7,4.44,4.44,0,0,1-2.51-.76,5,5,0,0,1-1.77-2.09,7.27,7.27,0,0,1-.63-3.1,8.08,8.08,0,0,1,.57-3.1,4.53,4.53,0,0,1,1.71-2.14,4.61,4.61,0,0,1,2.55-.74A3.83,3.83,0,0,1,257.09,82V76.34H259V92.09Zm-6.11-5.69a5,5,0,0,0,.92,3.27,2.79,2.79,0,0,0,2.18,1.09,2.75,2.75,0,0,0,2.16-1,4.79,4.79,0,0,0,.88-3.16,5.38,5.38,0,0,0-.9-3.44,2.77,2.77,0,0,0-2.22-1.1A2.68,2.68,0,0,0,252,83.08,5.22,5.22,0,0,0,251.11,86.4Z"/></g></g></svg>