<svg xmlns="http://www.w3.org/2000/svg" viewBox="0 0 565.68 166.88"><defs><style>.cls-1{fill:#3d55aa;}.cls-2{fill:#fff;}</style></defs><g id="Layer_2" data-name="Layer 2"><g id="Layer_2-2" data-name="Layer 2"><rect class="cls-1" width="162.69" height="166.88" rx="64.9"/><path class="cls-2" d="M78.69,43.22h22.36a.8.8,0,0,1,.69.41l21.62,38a3.18,3.18,0,0,1,0,3.09l-20.64,38.49a.8.8,0,0,1-.7.42H78.68a.8.8,0,0,1-.69-1.21L100.92,84.8a3.19,3.19,0,0,0,0-3.34L78,44.44A.8.8,0,0,1,78.69,43.22Z"/><path class="cls-2" d="M57.67,71.67,41.07,46.5a2.12,2.12,0,0,1,1.76-3.28H62a2.1,2.1,0,0,1,1.83,1.07L81,74.57a.85.85,0,0,1-.74,1.28H65.43A9.3,9.3,0,0,1,57.67,71.67Z"/><path class="cls-2" d="M82,90.39,64.79,122.54a2.1,2.1,0,0,1-1.86,1.11H42.8A2.11,2.11,0,0,1,41,120.4l17.54-27a9.33,9.33,0,0,1,7.81-4.24H81.27A.87.87,0,0,1,82,90.39Z"/><path class="cls-2" d="M187.21,41.45h32A1.55,1.55,0,0,1,220.76,43v6.33a1.54,1.54,0,0,1-1.55,1.55h-8.37a1.55,1.55,0,0,0-1.55,1.55v40.2a1.54,1.54,0,0,1-1.54,1.55h-9.08a1.55,1.55,0,0,1-1.55-1.55V52.43a1.54,1.54,0,0,0-1.54-1.55h-8.37a1.54,1.54,0,0,1-1.55-1.55V43A1.55,1.55,0,0,1,187.21,41.45Z"/><path class="cls-2" d="M232.53,77.63A1.54,1.54,0,0,0,231,79.45a9.67,9.67,0,0,0,2.57,5.18A9.32,9.32,0,0,0,240.32,87a18.18,18.18,0,0,0,5.12-.75A20.86,20.86,0,0,0,248.55,85a1.55,1.55,0,0,1,2.22,1.33l.22,4.93a1.52,1.52,0,0,1-1,1.49A30.61,30.61,0,0,1,245,94.35a29.07,29.07,0,0,1-6.23.69q-9.27,0-14.4-5.33t-5.12-15q0-9.31,4.66-15A15,15,0,0,1,236.05,54q8.05,0,12.5,5.49T253,75c0,.7,0,1.22,0,1.56s0,.68-.06,1Zm9.75-6.38c0-.4,0-.78,0-1.17s0-.59,0-.61a9.52,9.52,0,0,0-1.45-5.64,4.75,4.75,0,0,0-4.08-2,5.06,5.06,0,0,0-4.49,2.27,12.52,12.52,0,0,0-1.67,5.43,1.55,1.55,0,0,0,1.54,1.73Z"/><path class="cls-2" d="M286.62,57.05l-.39,5.49a1.55,1.55,0,0,1-2.09,1.34,13.77,13.77,0,0,0-1.37-.46,12.21,12.21,0,0,0-3.31-.48q-4.41,0-6.69,2.74c-1.53,1.84-2.29,4.52-2.29,8.06q0,6,2.19,9.2a7.14,7.14,0,0,0,6.27,3.19,15.69,15.69,0,0,0,4-.52,17.18,17.18,0,0,0,1.88-.61,1.54,1.54,0,0,1,2.08,1.34l.36,5.43a1.55,1.55,0,0,1-1.05,1.58,35.11,35.11,0,0,1-4.53,1.17,31.18,31.18,0,0,1-5.59.52q-8.19,0-13-5.61t-4.79-15.25q0-9.42,5-14.8T276.94,54a25.83,25.83,0,0,1,4.9.46,27.1,27.1,0,0,1,3.77,1A1.54,1.54,0,0,1,286.62,57.05Z"/><path class="cls-2" d="M309.61,45.37v7.89a1.54,1.54,0,0,0,1.55,1.55h4.44a1.55,1.55,0,0,1,1.54,1.55v5a1.55,1.55,0,0,1-1.54,1.55h-4.44a1.54,1.54,0,0,0-1.55,1.55V79.38q0,4.34,1,5.69c.64.91,1.79,1.36,3.45,1.36a9.46,9.46,0,0,0,1.55-.15l.33-.06a1.55,1.55,0,0,1,1.83,1.52v5.08a1.55,1.55,0,0,1-1.27,1.52c-.93.16-1.81.29-2.67.38a30.87,30.87,0,0,1-3.48.2q-6.72,0-9.45-3T298.15,80V64.49a1.55,1.55,0,0,0-1.55-1.55h-3.36a1.55,1.55,0,0,1-1.55-1.55v-5a1.55,1.55,0,0,1,1.55-1.55h3.36a1.55,1.55,0,0,0,1.55-1.55V48a1.55,1.55,0,0,1,1.08-1.47l8.37-2.6A1.55,1.55,0,0,1,309.61,45.37Z"/><path class="cls-2" d="M334.74,77.63a1.54,1.54,0,0,0-1.52,1.82,9.6,9.6,0,0,0,2.57,5.18A9.31,9.31,0,0,0,342.52,87a18.2,18.2,0,0,0,5.13-.75A20.86,20.86,0,0,0,350.76,85,1.55,1.55,0,0,1,353,86.36l.22,4.93a1.52,1.52,0,0,1-.95,1.49,30.61,30.61,0,0,1-5.09,1.57,29.07,29.07,0,0,1-6.23.69q-9.29,0-14.4-5.33t-5.12-15q0-9.31,4.66-15A15,15,0,0,1,338.26,54q8,0,12.5,5.49T355.21,75c0,.7,0,1.22,0,1.56s0,.68-.06,1Zm9.75-6.38c0-.4,0-.78,0-1.17s0-.59,0-.61a9.52,9.52,0,0,0-1.45-5.64,4.75,4.75,0,0,0-4.08-2,5.06,5.06,0,0,0-4.49,2.27,12.39,12.39,0,0,0-1.67,5.43,1.55,1.55,0,0,0,1.54,1.73Z"/><path class="cls-2" d="M385.09,54.14V64.68a2.34,2.34,0,0,1-.45-.07,12.5,12.5,0,0,0-2.3-.37q-4.3,0-6.29,2.61t-2,8.41V92.63a1.55,1.55,0,0,1-1.55,1.55h-8.45a1.54,1.54,0,0,1-1.54-1.55V63.35c0-2.28,0-4-.1-5.2,0-.57-.07-1.13-.11-1.67a1.54,1.54,0,0,1,1.54-1.67h8.83a1.53,1.53,0,0,1,0,.41c.2,2.38.3,4.12.3,5.23v1.19a11.67,11.67,0,0,1,4-5.58A9.87,9.87,0,0,1,383.12,54a17.8,17.8,0,0,1,1.78.11Z"/><path class="cls-2" d="M420.22,58.3a1.51,1.51,0,0,0,2.46,0,10.17,10.17,0,0,1,3-2.69A13.06,13.06,0,0,1,432.43,54c3.47,0,6.12,1.13,8,3.41s2.77,5.57,2.77,9.87V92.63a1.55,1.55,0,0,1-1.55,1.55h-8.48a1.54,1.54,0,0,1-1.55-1.55V69.88a8.64,8.64,0,0,0-1-4.72,3.53,3.53,0,0,0-3.14-1.52,4.3,4.3,0,0,0-3.87,2.06,11.37,11.37,0,0,0-1.32,6.07V92.63a1.54,1.54,0,0,1-1.55,1.55h-8.37a1.55,1.55,0,0,1-1.55-1.55V69.88a8.69,8.69,0,0,0-1-4.73,3.54,3.54,0,0,0-3.19-1.51,4.29,4.29,0,0,0-3.84,2.06,11.37,11.37,0,0,0-1.32,6.07V92.63a1.54,1.54,0,0,1-1.55,1.55h-8.44a1.55,1.55,0,0,1-1.55-1.55V63.35c0-2.28,0-4-.09-5.2,0-.57-.07-1.13-.11-1.67a1.54,1.54,0,0,1,1.54-1.67h7.45a1.56,1.56,0,0,1,1.54,1.41c.07.65.12,1.26.16,1.84q.09,1.47.09,2.76a10.87,10.87,0,0,1,4.19-5A11.54,11.54,0,0,1,411,54a12,12,0,0,1,6.42,1.65A9.46,9.46,0,0,1,420.22,58.3Z"/><path class="cls-2" d="M457.12,37.85h1.43a5,5,0,0,1,5,5v.25a5,5,0,0,1-5,5h-1.43a5,5,0,0,1-5-5v-.25A5,5,0,0,1,457.12,37.85Zm-3.47,17H462a1.56,1.56,0,0,1,1.55,1.55V92.63A1.55,1.55,0,0,1,462,94.18h-8.37a1.54,1.54,0,0,1-1.55-1.55V56.36A1.55,1.55,0,0,1,453.65,54.81Z"/><path class="cls-2" d="M505.61,67.28V92.63a1.54,1.54,0,0,1-1.55,1.55h-8.48A1.54,1.54,0,0,1,494,92.63V69.88A8.29,8.29,0,0,0,493,65.15a3.76,3.76,0,0,0-3.32-1.51,4.4,4.4,0,0,0-3.91,2.08,11.06,11.06,0,0,0-1.36,6V92.63a1.54,1.54,0,0,1-1.54,1.55h-8.45a1.55,1.55,0,0,1-1.55-1.55V63.35c0-2.28,0-4-.09-5.2,0-.57-.07-1.13-.11-1.67a1.54,1.54,0,0,1,1.54-1.67h7.45a1.56,1.56,0,0,1,1.54,1.41c.07.65.12,1.26.16,1.84q.09,1.47.09,2.76a10.61,10.61,0,0,1,4.28-5A12.62,12.62,0,0,1,494.44,54q5.46,0,8.31,3.37T505.61,67.28Z"/><path class="cls-2" d="M545.24,71.62V86.13c0,1.71,0,3.19.11,4.45,0,.65.09,1.28.15,1.9a1.53,1.53,0,0,1-1.53,1.7h-7.63a1.54,1.54,0,0,1-1.54-1.41l0-.22a1.55,1.55,0,0,0-2.55-1,13.78,13.78,0,0,1-3,2A13.93,13.93,0,0,1,522.83,95a10.82,10.82,0,0,1-8.26-3.34,12.29,12.29,0,0,1-3.14-8.76q0-6.57,4.83-10.09t13.88-3.53H534V68.21a5.88,5.88,0,0,0-1.92-4.77,8.65,8.65,0,0,0-5.68-1.62,16,16,0,0,0-5.33.93A16.57,16.57,0,0,0,518.25,64,1.53,1.53,0,0,1,516,62.79l-.34-4.91a1.56,1.56,0,0,1,1-1.57,47,47,0,0,1,5.91-1.63,32.92,32.92,0,0,1,6.55-.68q9,0,12.55,3.74T545.24,71.62ZM534,77.14a1.54,1.54,0,0,0-1.45-1.55h0c-.51,0-1.16,0-1.95,0a10.28,10.28,0,0,0-6.23,1.6,5.45,5.45,0,0,0-2.12,4.64,5.22,5.22,0,0,0,1.38,3.84A5,5,0,0,0,527.39,87a5.78,5.78,0,0,0,5-2.21c1.08-1.47,1.61-3.76,1.61-6.88Z"/><path class="cls-2" d="M555.77,37.26h8.37a1.54,1.54,0,0,1,1.54,1.55V92.63a1.54,1.54,0,0,1-1.54,1.55h-8.37a1.54,1.54,0,0,1-1.55-1.55V38.81A1.54,1.54,0,0,1,555.77,37.26Z"/><path class="cls-2" d="M197.29,123.83l2.09.52a7.05,7.05,0,0,1-2.36,3.92,6.49,6.49,0,0,1-4.16,1.35,7.53,7.53,0,0,1-4.15-1,6.44,6.44,0,0,1-2.42-3,10.63,10.63,0,0,1-.84-4.22,9.35,9.35,0,0,1,.94-4.29,6.45,6.45,0,0,1,2.68-2.79,7.87,7.87,0,0,1,3.82-1,6.4,6.4,0,0,1,4,1.21,6.26,6.26,0,0,1,2.25,3.38l-2.05.48a4.93,4.93,0,0,0-1.59-2.5,4.28,4.28,0,0,0-2.63-.78,5.07,5.07,0,0,0-3,.87,4.62,4.62,0,0,0-1.71,2.33,9.44,9.44,0,0,0-.5,3,9.57,9.57,0,0,0,.59,3.5,4.36,4.36,0,0,0,1.82,2.24,5,5,0,0,0,2.67.74,4.46,4.46,0,0,0,3-1A5.11,5.11,0,0,0,197.29,123.83Z"/><path class="cls-2" d="M201,123.65a5.87,5.87,0,0,1,1.76-4.7,5.34,5.34,0,0,1,3.59-1.27,5.14,5.14,0,0,1,3.84,1.54,5.86,5.86,0,0,1,1.5,4.26A7.43,7.43,0,0,1,211,127a4.71,4.71,0,0,1-1.92,2,5.65,5.65,0,0,1-2.75.7,5.13,5.13,0,0,1-3.88-1.54A6.14,6.14,0,0,1,201,123.65Zm2,0a4.85,4.85,0,0,0,1,3.28,3.09,3.09,0,0,0,2.41,1.09,3,3,0,0,0,2.39-1.1,5,5,0,0,0,1-3.34,4.73,4.73,0,0,0-1-3.21,3.19,3.19,0,0,0-4.8,0A4.81,4.81,0,0,0,203,123.65Z"/><path class="cls-2" d="M213.93,129.35V117.94h1.74v1.62a4.11,4.11,0,0,1,3.63-1.88,4.91,4.91,0,0,1,1.9.37,2.88,2.88,0,0,1,1.29,1,3.57,3.57,0,0,1,.6,1.42,10.22,10.22,0,0,1,.11,1.88v7h-1.93v-6.94a5.21,5.21,0,0,0-.23-1.77,1.81,1.81,0,0,0-.8-.93,2.56,2.56,0,0,0-1.35-.35,3.15,3.15,0,0,0-2.13.78,3.89,3.89,0,0,0-.89,3v6.23Z"/><path class="cls-2" d="M226.17,129.35V117.94h1.74v1.62a4.11,4.11,0,0,1,3.63-1.88,4.83,4.83,0,0,1,1.89.37,3,3,0,0,1,1.3,1,3.72,3.72,0,0,1,.6,1.42,11.23,11.23,0,0,1,.11,1.88v7H233.5v-6.94a5.25,5.25,0,0,0-.22-1.77,1.85,1.85,0,0,0-.8-.93,2.58,2.58,0,0,0-1.35-.35,3.15,3.15,0,0,0-2.13.78,3.88,3.88,0,0,0-.9,3v6.23Z"/><path class="cls-2" d="M246.21,125.68l2,.24a4.89,4.89,0,0,1-1.75,2.72,5.93,5.93,0,0,1-7.24-.57,6.07,6.07,0,0,1-1.46-4.33,6.3,6.3,0,0,1,1.48-4.47,5,5,0,0,1,3.85-1.59,4.85,4.85,0,0,1,3.73,1.56,6.18,6.18,0,0,1,1.45,4.38c0,.12,0,.29,0,.52h-8.5a4.38,4.38,0,0,0,1.06,2.88,3.19,3.19,0,0,0,2.38,1,3,3,0,0,0,1.82-.56A3.7,3.7,0,0,0,246.21,125.68Zm-6.35-3.13h6.37a3.83,3.83,0,0,0-.73-2.16,3,3,0,0,0-2.39-1.12,3.08,3.08,0,0,0-2.24.89A3.55,3.55,0,0,0,239.86,122.55Z"/><path class="cls-2" d="M258.08,125.17l1.9.25a5,5,0,0,1-1.59,3.08,4.66,4.66,0,0,1-3.15,1.11,4.9,4.9,0,0,1-3.77-1.53,6.22,6.22,0,0,1-1.42-4.39,8,8,0,0,1,.61-3.24,4.28,4.28,0,0,1,1.86-2.07,5.47,5.47,0,0,1,2.73-.7,4.77,4.77,0,0,1,3,.94,4.35,4.35,0,0,1,1.51,2.67l-1.88.29a3.19,3.19,0,0,0-.95-1.73,2.48,2.48,0,0,0-1.65-.58,3,3,0,0,0-2.37,1,5,5,0,0,0-.92,3.31,5.15,5.15,0,0,0,.89,3.35,2.86,2.86,0,0,0,2.29,1,2.76,2.76,0,0,0,1.91-.7A3.48,3.48,0,0,0,258.08,125.17Z"/><path class="cls-2" d="M265.86,127.62l.28,1.71a7.53,7.53,0,0,1-1.46.17,3.31,3.31,0,0,1-1.63-.33,1.92,1.92,0,0,1-.82-.88A6.8,6.8,0,0,1,262,126v-6.57h-1.42v-1.5H262v-2.82l1.93-1.16v4h1.94v1.5h-1.94v6.68a3.32,3.32,0,0,0,.1,1.06.87.87,0,0,0,.33.38,1.31,1.31,0,0,0,.66.13A6.11,6.11,0,0,0,265.86,127.62Z"/><path class="cls-2" d="M268.3,129.35v-2.2h2.2v2.2Z"/><path class="cls-2" d="M277.28,129.35l6.05-15.75h2.24L292,129.35h-2.38l-1.83-4.77h-6.59l-1.73,4.77Zm4.54-6.47h5.34l-1.64-4.36c-.5-1.32-.88-2.41-1.12-3.26a19.21,19.21,0,0,1-.85,3Z"/><path class="cls-2" d="M300.88,125.17l1.9.25a5,5,0,0,1-1.59,3.08,4.67,4.67,0,0,1-3.16,1.11,4.89,4.89,0,0,1-3.76-1.53,6.22,6.22,0,0,1-1.43-4.39,8,8,0,0,1,.62-3.24,4.23,4.23,0,0,1,1.86-2.07,5.43,5.43,0,0,1,2.72-.7,4.76,4.76,0,0,1,3,.94,4.32,4.32,0,0,1,1.52,2.67l-1.88.29a3.19,3.19,0,0,0-1-1.73,2.52,2.52,0,0,0-1.65-.58,3,3,0,0,0-2.38,1,5,5,0,0,0-.91,3.31,5.21,5.21,0,0,0,.88,3.35,2.89,2.89,0,0,0,2.3,1,2.73,2.73,0,0,0,1.9-.7A3.49,3.49,0,0,0,300.88,125.17Z"/><path class="cls-2" d="M311.88,125.17l1.9.25a5,5,0,0,1-1.59,3.08,4.67,4.67,0,0,1-3.16,1.11,4.89,4.89,0,0,1-3.76-1.53,6.22,6.22,0,0,1-1.43-4.39,8,8,0,0,1,.62-3.24,4.23,4.23,0,0,1,1.86-2.07,5.43,5.43,0,0,1,2.72-.7,4.76,4.76,0,0,1,3,.94,4.32,4.32,0,0,1,1.52,2.67l-1.88.29a3.19,3.19,0,0,0-1-1.73,2.52,2.52,0,0,0-1.65-.58,3,3,0,0,0-2.38,1,5,5,0,0,0-.91,3.31,5.21,5.21,0,0,0,.88,3.35,2.89,2.89,0,0,0,2.3,1,2.73,2.73,0,0,0,1.9-.7A3.49,3.49,0,0,0,311.88,125.17Z"/><path class="cls-2" d="M323.24,125.68l2,.24a4.84,4.84,0,0,1-1.75,2.72,5.92,5.92,0,0,1-7.23-.57,6,6,0,0,1-1.47-4.33,6.3,6.3,0,0,1,1.48-4.47,5,5,0,0,1,3.85-1.59,4.89,4.89,0,0,1,3.74,1.56,6.22,6.22,0,0,1,1.45,4.38c0,.12,0,.29,0,.52h-8.51a4.38,4.38,0,0,0,1.06,2.88,3.19,3.19,0,0,0,2.39,1,3,3,0,0,0,1.81-.56A3.7,3.7,0,0,0,323.24,125.68Zm-6.34-3.13h6.37a3.91,3.91,0,0,0-.73-2.16,3,3,0,0,0-2.4-1.12,3.09,3.09,0,0,0-2.24.89A3.54,3.54,0,0,0,316.9,122.55Z"/><path class="cls-2" d="M326.9,125.94l1.91-.3a2.61,2.61,0,0,0,.9,1.76,3.1,3.1,0,0,0,2.05.62,3,3,0,0,0,2-.55,1.6,1.6,0,0,0,.64-1.27,1.18,1.18,0,0,0-.57-1,8.19,8.19,0,0,0-2-.65,18.39,18.39,0,0,1-2.95-.93,3,3,0,0,1-1.25-1.09,2.89,2.89,0,0,1-.42-1.53,2.84,2.84,0,0,1,.35-1.41,3,3,0,0,1,.95-1.08,4.16,4.16,0,0,1,1.23-.57,6,6,0,0,1,1.67-.23,6.6,6.6,0,0,1,2.36.39,3.31,3.31,0,0,1,1.5,1.05,4.1,4.1,0,0,1,.66,1.76l-1.89.26a2.06,2.06,0,0,0-.75-1.37,2.71,2.71,0,0,0-1.74-.5,3.18,3.18,0,0,0-1.9.44,1.29,1.29,0,0,0-.57,1,1.09,1.09,0,0,0,.23.68,1.75,1.75,0,0,0,.75.52c.19.07.76.23,1.7.49a25.16,25.16,0,0,1,2.87.9,2.91,2.91,0,0,1,1.27,1,2.85,2.85,0,0,1,.46,1.66,3.3,3.3,0,0,1-.56,1.82,3.65,3.65,0,0,1-1.63,1.32,6,6,0,0,1-2.41.47,5.35,5.35,0,0,1-3.39-.93A4.29,4.29,0,0,1,326.9,125.94Z"/><path class="cls-2" d="M337.9,125.94l1.91-.3a2.61,2.61,0,0,0,.9,1.76,3.1,3.1,0,0,0,2.05.62,3,3,0,0,0,2-.55,1.6,1.6,0,0,0,.64-1.27,1.18,1.18,0,0,0-.57-1,8.19,8.19,0,0,0-2-.65,18.39,18.39,0,0,1-2.95-.93,3,3,0,0,1-1.25-1.09,2.89,2.89,0,0,1-.42-1.53,2.84,2.84,0,0,1,.35-1.41,3,3,0,0,1,.95-1.08,4.16,4.16,0,0,1,1.23-.57,6,6,0,0,1,1.67-.23,6.6,6.6,0,0,1,2.36.39,3.31,3.31,0,0,1,1.5,1.05,4.1,4.1,0,0,1,.66,1.76l-1.89.26a2.06,2.06,0,0,0-.75-1.37,2.71,2.71,0,0,0-1.74-.5,3.18,3.18,0,0,0-1.9.44,1.29,1.29,0,0,0-.57,1,1.09,1.09,0,0,0,.23.68,1.75,1.75,0,0,0,.75.52c.19.07.76.23,1.7.49a25.16,25.16,0,0,1,2.87.9,2.91,2.91,0,0,1,1.27,1,2.85,2.85,0,0,1,.46,1.66,3.3,3.3,0,0,1-.56,1.82,3.65,3.65,0,0,1-1.63,1.32,6,6,0,0,1-2.41.47,5.35,5.35,0,0,1-3.39-.93A4.29,4.29,0,0,1,337.9,125.94Z"/><path class="cls-2" d="M350.22,129.35v-2.2h2.2v2.2Z"/><path class="cls-2" d="M361.43,124.29l2-.17a4.32,4.32,0,0,0,.65,1.94,3.58,3.58,0,0,0,1.58,1.22,6,6,0,0,0,2.42.47,5.67,5.67,0,0,0,2.1-.36,2.85,2.85,0,0,0,1.36-1,2.24,2.24,0,0,0,.45-1.35,2,2,0,0,0-.43-1.29,3.19,3.19,0,0,0-1.42-.93c-.42-.16-1.36-.42-2.8-.77a14.33,14.33,0,0,1-3-1,4.21,4.21,0,0,1-1.68-1.47,3.56,3.56,0,0,1-.56-2,4,4,0,0,1,.68-2.23,4.19,4.19,0,0,1,2-1.57,7.44,7.44,0,0,1,2.89-.54,7.8,7.8,0,0,1,3.08.57,4.39,4.39,0,0,1,2.06,1.66,4.78,4.78,0,0,1,.78,2.48l-2,.15a3.24,3.24,0,0,0-1.09-2.26,4.25,4.25,0,0,0-2.75-.76,4.39,4.39,0,0,0-2.75.69,2.07,2.07,0,0,0-.87,1.67,1.82,1.82,0,0,0,.61,1.4,8.43,8.43,0,0,0,3.15,1.12,21,21,0,0,1,3.48,1,4.67,4.67,0,0,1,2,1.6,3.91,3.91,0,0,1,.66,2.24,4.28,4.28,0,0,1-.72,2.37,4.74,4.74,0,0,1-2.07,1.73,7.23,7.23,0,0,1-3,.62,9,9,0,0,1-3.59-.63,5,5,0,0,1-2.26-1.87A5.31,5.31,0,0,1,361.43,124.29Z"/><path class="cls-2" d="M384,129.35v-1.68a4.16,4.16,0,0,1-3.62,1.94,4.55,4.55,0,0,1-1.88-.39,3.13,3.13,0,0,1-1.3-1,3.77,3.77,0,0,1-.6-1.44,9.85,9.85,0,0,1-.11-1.8v-7.07h1.93v6.33a11.08,11.08,0,0,0,.12,2,2,2,0,0,0,.77,1.2,2.38,2.38,0,0,0,1.46.43,3.21,3.21,0,0,0,1.63-.44,2.5,2.5,0,0,0,1.08-1.22,5.88,5.88,0,0,0,.32-2.23v-6.11h1.93v11.41Z"/><path class="cls-2" d="M396.25,125.17l1.9.25a5,5,0,0,1-1.59,3.08,4.67,4.67,0,0,1-3.16,1.11,4.89,4.89,0,0,1-3.76-1.53,6.22,6.22,0,0,1-1.43-4.39,8,8,0,0,1,.62-3.24,4.23,4.23,0,0,1,1.86-2.07,5.43,5.43,0,0,1,2.72-.7,4.77,4.77,0,0,1,3,.94,4.32,4.32,0,0,1,1.52,2.67l-1.88.29a3.19,3.19,0,0,0-.95-1.73,2.52,2.52,0,0,0-1.65-.58,3,3,0,0,0-2.38,1,5,5,0,0,0-.91,3.31,5.15,5.15,0,0,0,.88,3.35,2.89,2.89,0,0,0,2.3,1,2.73,2.73,0,0,0,1.9-.7A3.49,3.49,0,0,0,396.25,125.17Z"/><path class="cls-2" d="M407.25,125.17l1.9.25a5,5,0,0,1-1.59,3.08,4.67,4.67,0,0,1-3.16,1.11,4.89,4.89,0,0,1-3.76-1.53,6.22,6.22,0,0,1-1.43-4.39,8,8,0,0,1,.62-3.24,4.23,4.23,0,0,1,1.86-2.07,5.43,5.43,0,0,1,2.72-.7,4.77,4.77,0,0,1,3,.94,4.32,4.32,0,0,1,1.52,2.67l-1.88.29a3.19,3.19,0,0,0-.95-1.73,2.52,2.52,0,0,0-1.65-.58,3,3,0,0,0-2.38,1,5,5,0,0,0-.91,3.31,5.15,5.15,0,0,0,.88,3.35,2.89,2.89,0,0,0,2.3,1,2.73,2.73,0,0,0,1.9-.7A3.49,3.49,0,0,0,407.25,125.17Z"/><path class="cls-2" d="M418.61,125.68l2,.24a4.84,4.84,0,0,1-1.75,2.72,5.92,5.92,0,0,1-7.23-.57,6,6,0,0,1-1.47-4.33,6.3,6.3,0,0,1,1.48-4.47,5,5,0,0,1,3.85-1.59,4.89,4.89,0,0,1,3.74,1.56,6.22,6.22,0,0,1,1.45,4.38c0,.12,0,.29,0,.52h-8.51a4.38,4.38,0,0,0,1.06,2.88,3.19,3.19,0,0,0,2.39,1,3,3,0,0,0,1.81-.56A3.7,3.7,0,0,0,418.61,125.68Zm-6.34-3.13h6.37a3.83,3.83,0,0,0-.74-2.16,3,3,0,0,0-2.39-1.12,3.08,3.08,0,0,0-2.24.89A3.5,3.5,0,0,0,412.27,122.55Z"/><path class="cls-2" d="M430.85,125.68l2,.24a4.89,4.89,0,0,1-1.75,2.72,5.33,5.33,0,0,1-3.27,1,5.25,5.25,0,0,1-4-1.54,6,6,0,0,1-1.47-4.33,6.3,6.3,0,0,1,1.49-4.47,5,5,0,0,1,3.84-1.59,4.88,4.88,0,0,1,3.74,1.56,6.18,6.18,0,0,1,1.45,4.38c0,.12,0,.29,0,.52h-8.51a4.38,4.38,0,0,0,1.07,2.88,3.17,3.17,0,0,0,2.38,1,3,3,0,0,0,1.82-.56A3.77,3.77,0,0,0,430.85,125.68Zm-6.35-3.13h6.37a3.91,3.91,0,0,0-.73-2.16,3,3,0,0,0-2.4-1.12,3.11,3.11,0,0,0-2.24.89A3.54,3.54,0,0,0,424.5,122.55Z"/><path class="cls-2" d="M442.68,129.35v-1.44a3.56,3.56,0,0,1-3.19,1.7,4.41,4.41,0,0,1-2.51-.76,4.91,4.91,0,0,1-1.77-2.09,7.27,7.27,0,0,1-.63-3.1,8.08,8.08,0,0,1,.57-3.1,4.44,4.44,0,0,1,4.25-2.88,3.82,3.82,0,0,1,1.84.44,4,4,0,0,1,1.31,1.13V113.6h1.92v15.75Zm-6.12-5.69a4.91,4.91,0,0,0,.93,3.27,2.73,2.73,0,0,0,4.33,0,4.79,4.79,0,0,0,.89-3.16,5.38,5.38,0,0,0-.9-3.44,2.81,2.81,0,0,0-2.23-1.1,2.66,2.66,0,0,0-2.15,1.06A5.17,5.17,0,0,0,436.56,123.66Z"/></g></g></svg>