<svg width="763" height="100" viewBox="0 0 763 100" fill="none" xmlns="http://www.w3.org/2000/svg">
<mask id="mask0" mask-type="alpha" maskUnits="userSpaceOnUse" x="0" y="0" width="763" height="100">
<path fill-rule="evenodd" clip-rule="evenodd" d="M0 0L101.646 100H661.354L763 0H0Z" fill="white"/>
</mask>
<g mask="url(#mask0)">
<g opacity="0.35">
<circle cx="5.7998" cy="6" r="2" fill="#CECFE0"/>
<circle cx="5.7998" cy="29" r="2" fill="#CECFE0"/>
<circle cx="5.7998" cy="52" r="2" fill="#CECFE0"/>
<circle cx="5.7998" cy="75" r="2" fill="#CECFE0"/>
<circle cx="24.7002" cy="6" r="2" fill="#CECFE0"/>
<circle cx="24.7002" cy="29" r="2" fill="#CECFE0"/>
<circle cx="24.7002" cy="52" r="2" fill="#CECFE0"/>
<circle cx="24.7002" cy="75" r="2" fill="#CECFE0"/>
<circle cx="43.5996" cy="6" r="2" fill="#CECFE0"/>
<circle cx="43.5996" cy="29" r="2" fill="#CECFE0"/>
<circle cx="43.5996" cy="52" r="2" fill="#CECFE0"/>
<circle cx="43.5996" cy="75" r="2" fill="#CECFE0"/>
<circle cx="62.5" cy="6" r="2" fill="#CECFE0"/>
<circle cx="62.5" cy="29" r="2" fill="#CECFE0"/>
<circle cx="62.5" cy="52" r="2" fill="#CECFE0"/>
<circle cx="62.5" cy="75" r="2" fill="#CECFE0"/>
<circle cx="81.4004" cy="6" r="2" fill="#CECFE0"/>
<circle cx="81.4004" cy="29" r="2" fill="#CECFE0"/>
<circle cx="81.4004" cy="52" r="2" fill="#CECFE0"/>
<circle cx="81.4004" cy="75" r="2" fill="#CECFE0"/>
<circle cx="100.3" cy="6" r="2" fill="#CECFE0"/>
<circle cx="100.3" cy="29" r="2" fill="#CECFE0"/>
<circle cx="100.3" cy="52" r="2" fill="#CECFE0"/>
<circle cx="100.3" cy="75" r="2" fill="#CECFE0"/>
<circle cx="119.2" cy="6" r="2" fill="#CECFE0"/>
<circle cx="119.2" cy="29" r="2" fill="#CECFE0"/>
<circle cx="119.2" cy="52" r="2" fill="#CECFE0"/>
<circle cx="119.2" cy="75" r="2" fill="#CECFE0"/>
<circle cx="138.1" cy="6" r="2" fill="#CECFE0"/>
<circle cx="138.1" cy="29" r="2" fill="#CECFE0"/>
<circle cx="138.1" cy="52" r="2" fill="#CECFE0"/>
<circle cx="138.1" cy="75" r="2" fill="#CECFE0"/>
<circle cx="157" cy="6" r="2" fill="#CECFE0"/>
<circle cx="157" cy="29" r="2" fill="#CECFE0"/>
<circle cx="157" cy="52" r="2" fill="#CECFE0"/>
<circle cx="157" cy="75" r="2" fill="#CECFE0"/>
<circle cx="175.9" cy="6" r="2" fill="#CECFE0"/>
<circle cx="175.9" cy="29" r="2" fill="#CECFE0"/>
<circle cx="175.9" cy="52" r="2" fill="#CECFE0"/>
<circle cx="175.9" cy="75" r="2" fill="#CECFE0"/>
<circle cx="194.8" cy="6" r="2" fill="#CECFE0"/>
<circle cx="194.8" cy="29" r="2" fill="#CECFE0"/>
<circle cx="194.8" cy="52" r="2" fill="#CECFE0"/>
<circle cx="194.8" cy="75" r="2" fill="#CECFE0"/>
<circle cx="213.7" cy="6" r="2" fill="#CECFE0"/>
<circle cx="213.7" cy="29" r="2" fill="#CECFE0"/>
<circle cx="213.7" cy="52" r="2" fill="#CECFE0"/>
<circle cx="213.7" cy="75" r="2" fill="#CECFE0"/>
<circle cx="232.6" cy="6" r="2" fill="#CECFE0"/>
<circle cx="232.6" cy="29" r="2" fill="#CECFE0"/>
<circle cx="232.6" cy="52" r="2" fill="#CECFE0"/>
<circle cx="232.6" cy="75" r="2" fill="#CECFE0"/>
<circle cx="251.5" cy="6" r="2" fill="#CECFE0"/>
<circle cx="251.5" cy="29" r="2" fill="#CECFE0"/>
<circle cx="251.5" cy="52" r="2" fill="#CECFE0"/>
<circle cx="251.5" cy="75" r="2" fill="#CECFE0"/>
<circle cx="270.4" cy="6" r="2" fill="#CECFE0"/>
<circle cx="270.4" cy="29" r="2" fill="#CECFE0"/>
<circle cx="270.4" cy="52" r="2" fill="#CECFE0"/>
<circle cx="270.4" cy="75" r="2" fill="#CECFE0"/>
<circle cx="289.3" cy="6" r="2" fill="#CECFE0"/>
<circle cx="289.3" cy="29" r="2" fill="#CECFE0"/>
<circle cx="289.3" cy="52" r="2" fill="#CECFE0"/>
<circle cx="289.3" cy="75" r="2" fill="#CECFE0"/>
<circle cx="308.2" cy="6" r="2" fill="#CECFE0"/>
<circle cx="308.2" cy="29" r="2" fill="#CECFE0"/>
<circle cx="308.2" cy="52" r="2" fill="#CECFE0"/>
<circle cx="308.2" cy="75" r="2" fill="#CECFE0"/>
<circle cx="327.1" cy="6" r="2" fill="#CECFE0"/>
<circle cx="327.1" cy="29" r="2" fill="#CECFE0"/>
<circle cx="327.1" cy="52" r="2" fill="#CECFE0"/>
<circle cx="327.1" cy="75" r="2" fill="#CECFE0"/>
<circle cx="346" cy="6" r="2" fill="#CECFE0"/>
<circle cx="346" cy="29" r="2" fill="#CECFE0"/>
<circle cx="346" cy="52" r="2" fill="#CECFE0"/>
<circle cx="346" cy="75" r="2" fill="#CECFE0"/>
<circle cx="364.9" cy="6" r="2" fill="#CECFE0"/>
<circle cx="364.9" cy="29" r="2" fill="#CECFE0"/>
<circle cx="364.9" cy="52" r="2" fill="#CECFE0"/>
<circle cx="364.9" cy="75" r="2" fill="#CECFE0"/>
<circle cx="383.8" cy="6" r="2" fill="#CECFE0"/>
<circle cx="383.8" cy="29" r="2" fill="#CECFE0"/>
<circle cx="383.8" cy="52" r="2" fill="#CECFE0"/>
<circle cx="383.8" cy="75" r="2" fill="#CECFE0"/>
<circle cx="402.7" cy="6" r="2" fill="#CECFE0"/>
<circle cx="402.7" cy="29" r="2" fill="#CECFE0"/>
<circle cx="402.7" cy="52" r="2" fill="#CECFE0"/>
<circle cx="402.7" cy="75" r="2" fill="#CECFE0"/>
<circle cx="421.6" cy="6" r="2" fill="#CECFE0"/>
<circle cx="421.6" cy="29" r="2" fill="#CECFE0"/>
<circle cx="421.6" cy="52" r="2" fill="#CECFE0"/>
<circle cx="421.6" cy="75" r="2" fill="#CECFE0"/>
<circle cx="440.5" cy="6" r="2" fill="#CECFE0"/>
<circle cx="440.5" cy="29" r="2" fill="#CECFE0"/>
<circle cx="440.5" cy="52" r="2" fill="#CECFE0"/>
<circle cx="440.5" cy="75" r="2" fill="#CECFE0"/>
<circle cx="459.4" cy="6" r="2" fill="#CECFE0"/>
<circle cx="459.4" cy="29" r="2" fill="#CECFE0"/>
<circle cx="459.4" cy="52" r="2" fill="#CECFE0"/>
<circle cx="459.4" cy="75" r="2" fill="#CECFE0"/>
<circle cx="478.3" cy="6" r="2" fill="#CECFE0"/>
<circle cx="478.3" cy="29" r="2" fill="#CECFE0"/>
<circle cx="478.3" cy="52" r="2" fill="#CECFE0"/>
<circle cx="478.3" cy="75" r="2" fill="#CECFE0"/>
<circle cx="497.2" cy="6" r="2" fill="#CECFE0"/>
<circle cx="497.2" cy="29" r="2" fill="#CECFE0"/>
<circle cx="497.2" cy="52" r="2" fill="#CECFE0"/>
<circle cx="497.2" cy="75" r="2" fill="#CECFE0"/>
<circle cx="516.1" cy="6" r="2" fill="#CECFE0"/>
<circle cx="516.1" cy="29" r="2" fill="#CECFE0"/>
<circle cx="516.1" cy="52" r="2" fill="#CECFE0"/>
<circle cx="516.1" cy="75" r="2" fill="#CECFE0"/>
<circle cx="535" cy="6" r="2" fill="#CECFE0"/>
<circle cx="535" cy="29" r="2" fill="#CECFE0"/>
<circle cx="535" cy="52" r="2" fill="#CECFE0"/>
<circle cx="535" cy="75" r="2" fill="#CECFE0"/>
<circle cx="553.9" cy="6" r="2" fill="#CECFE0"/>
<circle cx="553.9" cy="29" r="2" fill="#CECFE0"/>
<circle cx="553.9" cy="52" r="2" fill="#CECFE0"/>
<circle cx="553.9" cy="75" r="2" fill="#CECFE0"/>
<circle cx="572.8" cy="6" r="2" fill="#CECFE0"/>
<circle cx="572.8" cy="29" r="2" fill="#CECFE0"/>
<circle cx="572.8" cy="52" r="2" fill="#CECFE0"/>
<circle cx="572.8" cy="75" r="2" fill="#CECFE0"/>
<circle cx="591.7" cy="6" r="2" fill="#CECFE0"/>
<circle cx="591.7" cy="29" r="2" fill="#CECFE0"/>
<circle cx="591.7" cy="52" r="2" fill="#CECFE0"/>
<circle cx="591.7" cy="75" r="2" fill="#CECFE0"/>
<circle cx="610.6" cy="6" r="2" fill="#CECFE0"/>
<circle cx="610.6" cy="29" r="2" fill="#CECFE0"/>
<circle cx="610.6" cy="52" r="2" fill="#CECFE0"/>
<circle cx="610.6" cy="75" r="2" fill="#CECFE0"/>
<circle cx="629.5" cy="6" r="2" fill="#CECFE0"/>
<circle cx="629.5" cy="29" r="2" fill="#CECFE0"/>
<circle cx="629.5" cy="52" r="2" fill="#CECFE0"/>
<circle cx="629.5" cy="75" r="2" fill="#CECFE0"/>
<circle cx="648.4" cy="6" r="2" fill="#CECFE0"/>
<circle cx="648.4" cy="29" r="2" fill="#CECFE0"/>
<circle cx="648.4" cy="52" r="2" fill="#CECFE0"/>
<circle cx="648.4" cy="75" r="2" fill="#CECFE0"/>
<circle cx="667.3" cy="6" r="2" fill="#CECFE0"/>
<circle cx="667.3" cy="29" r="2" fill="#CECFE0"/>
<circle cx="667.3" cy="52" r="2" fill="#CECFE0"/>
<circle cx="667.3" cy="75" r="2" fill="#CECFE0"/>
<circle cx="686.2" cy="6" r="2" fill="#CECFE0"/>
<circle cx="686.2" cy="29" r="2" fill="#CECFE0"/>
<circle cx="686.2" cy="52" r="2" fill="#CECFE0"/>
<circle cx="686.2" cy="75" r="2" fill="#CECFE0"/>
<circle cx="705.101" cy="6" r="2" fill="#CECFE0"/>
<circle cx="705.101" cy="29" r="2" fill="#CECFE0"/>
<circle cx="705.101" cy="52" r="2" fill="#CECFE0"/>
<circle cx="705.101" cy="75" r="2" fill="#CECFE0"/>
<circle cx="724" cy="6" r="2" fill="#CECFE0"/>
<circle cx="724" cy="29" r="2" fill="#CECFE0"/>
<circle cx="724" cy="52" r="2" fill="#CECFE0"/>
<circle cx="724" cy="75" r="2" fill="#CECFE0"/>
<circle cx="742.9" cy="6" r="2" fill="#CECFE0"/>
<circle cx="742.9" cy="29" r="2" fill="#CECFE0"/>
<circle cx="742.9" cy="52" r="2" fill="#CECFE0"/>
<circle cx="742.9" cy="75" r="2" fill="#CECFE0"/>
<circle cx="761.8" cy="6" r="2" fill="#CECFE0"/>
<circle cx="761.8" cy="29" r="2" fill="#CECFE0"/>
<circle cx="761.8" cy="52" r="2" fill="#CECFE0"/>
<circle cx="761.8" cy="75" r="2" fill="#CECFE0"/>
</g>
</g>
</svg>
